<?xml version="1.0" standalone="no"?>
<!DOCTYPE svg PUBLIC "-//W3C//DTD SVG 20010904//EN"
 "http://www.w3.org/TR/2001/REC-SVG-20010904/DTD/svg10.dtd">
<svg version="1.0" xmlns="http://www.w3.org/2000/svg"
 width="700.000000pt" height="700.000000pt" viewBox="0 0 700.000000 700.000000"
 preserveAspectRatio="xMidYMid meet">
<metadata>
Created by potrace 1.11, written by Peter Selinger 2001-2013
</metadata>
<g transform="translate(0.000000,700.000000) scale(0.100000,-0.100000)"
fill="#000000" stroke="none">
<path d="M3278 6995 c-1 -1 -41 -6 -88 -9 -47 -4 -96 -8 -110 -10 -14 -2 -46
-7 -71 -10 -62 -9 -126 -20 -239 -42 -349 -68 -801 -251 -1125 -455 -486 -306
-898 -734 -1185 -1234 -48 -84 -180 -348 -180 -361 0 -3 -7 -20 -15 -37 -65
-139 -161 -459 -199 -662 -34 -179 -41 -231 -53 -390 -12 -174 -6 -541 11
-680 2 -16 7 -61 11 -100 3 -38 8 -72 10 -75 1 -3 6 -27 9 -55 15 -114 71
-345 96 -400 5 -11 17 -42 25 -70 9 -27 20 -59 24 -70 5 -11 26 -65 46 -120
52 -136 160 -357 239 -489 36 -60 66 -111 66 -113 0 -2 4 -9 10 -16 5 -7 46
-64 91 -126 118 -167 188 -251 345 -412 149 -153 241 -234 400 -354 43 -33 81
-63 82 -67 2 -5 8 -8 14 -8 8 0 93 -55 108 -70 3 -3 17 -12 32 -20 15 -8 78
-44 140 -81 263 -152 518 -256 843 -345 6 -2 19 -5 31 -7 11 -3 49 -12 85 -21
71 -17 208 -42 284 -52 28 -3 58 -8 68 -10 134 -25 698 -25 835 1 18 3 113 16
148 20 108 13 390 84 561 141 183 61 570 238 640 294 14 11 30 20 35 20 5 0
14 4 21 10 7 5 64 44 127 86 248 165 490 376 673 589 33 39 63 72 67 75 17 13
181 236 245 335 219 336 406 779 481 1140 16 79 54 301 59 350 4 33 9 71 11
85 9 46 11 524 4 605 -12 128 -21 202 -25 227 -3 13 -8 43 -11 68 -3 25 -8 53
-10 62 -3 10 -7 30 -10 45 -12 64 -55 244 -74 306 -11 37 -21 69 -21 72 0 2
-16 49 -35 102 -123 342 -296 666 -492 928 -153 203 -384 447 -572 605 -76 63
-315 239 -361 265 -10 5 -49 29 -86 51 -303 185 -709 344 -1068 419 -44 9 -89
18 -100 21 -11 2 -45 7 -75 10 -30 3 -58 8 -61 9 -3 2 -35 7 -71 10 -35 4 -78
9 -94 11 -33 5 -540 14 -546 9z"/>
</g>
</svg>
